<svg width="25" height="24" viewBox="0 0 25 24" fill="none" xmlns="http://www.w3.org/2000/svg">
<path d="M17.5299 20.28C16.5499 21.23 15.4799 21.08 14.4499 20.63C13.3599 20.17 12.3599 20.15 11.2099 20.63C9.7699 21.25 9.0099 21.07 8.1499 20.28C3.2699 15.25 3.9899 7.59 9.5299 7.31C10.8799 7.38 11.8199 8.05 12.6099 8.11C13.7899 7.87 14.9199 7.18 16.1799 7.27C17.6899 7.39 18.8299 7.99 19.5799 9.07C16.4599 10.94 17.1999 15.05 20.0599 16.2C19.4899 17.7 18.7499 19.19 17.5199 20.29L17.5299 20.28ZM12.5099 7.25C12.3599 5.02 14.1699 3.18 16.2499 3C16.5399 5.58 13.9099 7.5 12.5099 7.25Z" fill="black"/>
</svg>
