<svg width="22" height="22" viewBox="0 0 22 22" fill="none" xmlns="http://www.w3.org/2000/svg">
<g clip-path="url(#clip0_636_496)">
<path d="M21.48 10.74C21.48 4.8085 16.6715 0 10.74 0C4.8085 0 0 4.80842 0 10.74C0 16.1006 3.92748 20.5439 9.06187 21.3495V13.8445H6.33492V10.74H9.06187V8.37384C9.06187 5.68213 10.6653 4.19531 13.1185 4.19531C14.2936 4.19531 15.5227 4.40508 15.5227 4.40508V7.04812H14.1684C12.8341 7.04812 12.4181 7.87603 12.4181 8.72541V10.74H15.3968L14.9206 13.8445H12.4181V21.3495C17.5525 20.5439 21.48 16.1007 21.48 10.74Z" fill="#1877F2"/>
<path d="M14.9207 13.8445L15.3968 10.74H12.4182V8.72541C12.4182 7.87594 12.8343 7.04812 14.1684 7.04812H15.5227V4.40508C15.5227 4.40508 14.2936 4.19531 13.1185 4.19531C10.6654 4.19531 9.06191 5.68213 9.06191 8.37384V10.74H6.33496V13.8445H9.06191V21.3495C9.61705 21.4365 10.1781 21.4801 10.74 21.48C11.302 21.4802 11.863 21.4365 12.4182 21.3495V13.8445H14.9207Z" fill="white"/>
</g>
<defs>
<clipPath id="clip0_636_496">
<rect width="21.48" height="21.48" fill="white"/>
</clipPath>
</defs>
</svg>
