<svg width="23" height="23" viewBox="0 0 23 23" fill="none" xmlns="http://www.w3.org/2000/svg">
<path d="M21.4311 9.63226L12.6677 9.63184C12.2807 9.63184 11.967 9.94546 11.967 10.3324V13.1319C11.967 13.5188 12.2807 13.8325 12.6676 13.8325H17.6027C17.0623 15.235 16.0537 16.4094 14.7669 17.1557L16.8711 20.7984C20.2467 18.8462 22.2423 15.4209 22.2423 11.5864C22.2423 11.0405 22.2021 10.6502 22.1216 10.2107C22.0604 9.87681 21.7705 9.63226 21.4311 9.63226Z" fill="#167EE6"/>
<path d="M11.4986 18.0388C9.08349 18.0388 6.97513 16.7192 5.84278 14.7666L2.2002 16.8661C4.05388 20.0788 7.52644 22.2423 11.4986 22.2423C13.4472 22.2423 15.2859 21.7176 16.8698 20.8033V20.7983L14.7655 17.1556C13.803 17.7139 12.6891 18.0388 11.4986 18.0388Z" fill="#12B347"/>
<path d="M16.8712 20.8032V20.7983L14.7669 17.1555C13.8044 17.7137 12.6906 18.0387 11.5 18.0387V22.2422C13.4486 22.2422 15.2874 21.7176 16.8712 20.8032Z" fill="#0F993E"/>
<path d="M4.96135 11.5001C4.96135 10.3096 5.28622 9.19593 5.84436 8.23345L2.20178 6.13391C1.28243 7.71282 0.757812 9.54648 0.757812 11.5001C0.757812 13.4537 1.28243 15.2873 2.20178 16.8662L5.84436 14.7667C5.28622 13.8042 4.96135 12.6905 4.96135 11.5001Z" fill="#FFD500"/>
<path d="M11.4986 4.96121C13.0735 4.96121 14.5201 5.52081 15.65 6.45166C15.9288 6.68128 16.3339 6.6647 16.5893 6.40936L18.5728 4.42581C18.8625 4.13611 18.8419 3.66189 18.5324 3.39342C16.6393 1.75106 14.1761 0.75769 11.4986 0.75769C7.52644 0.75769 4.05388 2.92113 2.2002 6.13384L5.84278 8.23337C6.97513 6.28075 9.08349 4.96121 11.4986 4.96121Z" fill="#FF4B26"/>
<path d="M15.6514 6.45166C15.9302 6.68128 16.3354 6.6647 16.5907 6.40936L18.5742 4.42581C18.8639 4.13611 18.8432 3.66189 18.5338 3.39342C16.6407 1.75102 14.1775 0.75769 11.5 0.75769V4.96121C13.0748 4.96121 14.5215 5.52081 15.6514 6.45166Z" fill="#D93F21"/>
</svg>
